<svg width="88" height="88" viewBox="0 0 88 88" fill="none" xmlns="http://www.w3.org/2000/svg">
<circle cx="44" cy="44" r="42.5" stroke="black" stroke-width="3"/>
<line x1="15.8628" y1="23.9974" x2="15.8628" y2="74.8474" stroke="black" stroke-width="3"/>
<line x1="71.917" y1="23.1544" x2="71.917" y2="74.0034" stroke="black" stroke-width="3"/>
<line x1="15.7817" y1="24.7589" x2="44.6807" y2="69.1973" stroke="black" stroke-width="3"/>
<line y1="-1.5" x2="53.0087" y2="-1.5" transform="matrix(-0.545175 0.838322 0.838322 0.545175 72.8746 25.5277)" stroke="black" stroke-width="3"/>
<line x1="49" y1="22.5" x2="79.4817" y2="22.5" stroke="black" stroke-width="3"/>
<line x1="7" y1="22.5" x2="26.6669" y2="22.5" stroke="black" stroke-width="3"/>
<path d="M15.2063 51.3243C13.2337 65.5144 26.056 67.5417 26.056 67.5417C26.056 67.5417 39.273 71.7987 44.7965 54.3651C50.32 36.9316 66.9644 44.4376 70.9345 55.3787C72.4149 59.4584 71.9209 66.5281 71.9209 66.5281" stroke="black" stroke-width="3"/>
</svg>
