<svg width="83" height="101" viewBox="0 0 83 101" fill="none" xmlns="http://www.w3.org/2000/svg">
<circle cx="41.2906" cy="41.2906" r="39.7906" stroke="black" stroke-width="3"/>
<line x1="13.6817" y1="28.1166" x2="13.3162" y2="99.2011" stroke="black" stroke-width="3"/>
<line x1="70.334" y1="28.1655" x2="69.9685" y2="99.2501" stroke="black" stroke-width="3"/>
<line x1="13.7817" y1="29.7589" x2="42.6807" y2="74.1973" stroke="black" stroke-width="3"/>
<line y1="-1.5" x2="53.0087" y2="-1.5" transform="matrix(-0.545175 0.838322 0.838322 0.545175 70.8746 30.5277)" stroke="black" stroke-width="3"/>
<line x1="47" y1="27.5" x2="77.4817" y2="27.5" stroke="black" stroke-width="3"/>
<line x1="3" y1="27.5" x2="22.6669" y2="27.5" stroke="black" stroke-width="3"/>
<line x1="3.16554" y1="98.7423" x2="22.8324" y2="98.7423" stroke="black" stroke-width="3"/>
<path d="M13.2027 56.3243C11.2647 70.5144 23.8621 72.5417 23.8621 72.5417C23.8621 72.5417 36.8471 76.7987 42.2737 59.3651C47.7003 41.9316 64.0528 49.4376 67.9532 60.3787C69.4076 64.4584 68.9222 71.5281 68.9222 71.5281" stroke="black" stroke-width="3"/>
</svg>
