<svg width="86" height="115" viewBox="0 0 86 115" fill="none" xmlns="http://www.w3.org/2000/svg">
<circle cx="41.2906" cy="41.2906" r="39.7906" stroke="black" stroke-width="3"/>
<line x1="13.6817" y1="29.1166" x2="13.3162" y2="100.201" stroke="black" stroke-width="3"/>
<line x1="70.334" y1="29.1655" x2="69.9685" y2="100.25" stroke="black" stroke-width="3"/>
<line x1="13.7817" y1="29.7589" x2="42.6807" y2="74.1973" stroke="black" stroke-width="3"/>
<line y1="-1.5" x2="53.0087" y2="-1.5" transform="matrix(-0.545175 0.838322 0.838322 0.545175 70.8746 30.5277)" stroke="black" stroke-width="3"/>
<line x1="26.4153" y1="48.4989" x2="56.8969" y2="48.4989" stroke="black" stroke-width="3"/>
<line x1="3.0332" y1="27.6578" x2="22.7001" y2="27.6578" stroke="black" stroke-width="3"/>
<line x1="3.16554" y1="98.7423" x2="22.8324" y2="98.7423" stroke="black" stroke-width="3"/>
<line x1="41.6589" y1="70.6389" x2="41.6589" y2="2.26608" stroke="black" stroke-width="3"/>
<path d="M78.9785 88.7871C78.9785 91.8223 78.1836 94.4238 76.5938 96.5918C74.0885 99.8678 70.3789 101.506 65.4648 101.506C61.1771 101.506 57.1061 100.157 53.252 97.459L54.8418 95.002C58.5514 97.5072 62.1647 98.7839 65.6816 98.832C67.4642 98.832 69.1022 98.4948 70.5957 97.8203C74.0645 96.1823 75.7988 93.1712 75.7988 88.7871C75.7988 87.1491 75.4616 85.6556 74.7871 84.3066C73.679 82.1387 71.2461 80.1152 67.4883 78.2363C63.4414 76.1647 61.1048 74.9362 60.4785 74.5508C56.4316 71.901 54.4082 68.36 54.4082 63.9277C54.4082 60.748 55.4922 58.026 57.6602 55.7617C60.3099 53.0638 63.7064 51.7148 67.8496 51.7148C68.6686 51.7148 69.5117 51.7871 70.3789 51.9316C74.6185 52.6543 77.5332 54.8464 79.123 58.5078L76.5215 59.8086C76.3288 59.4714 76.112 59.11 75.8711 58.7246C73.9922 55.834 71.222 54.3887 67.5605 54.3887C65.7298 54.3887 63.9954 54.8223 62.3574 55.6895C59.1777 57.4238 57.5879 60.1699 57.5879 63.9277C57.5879 65.373 57.901 66.722 58.5273 67.9746C59.5391 69.9499 61.8757 71.877 65.5371 73.7559C69.5358 75.7793 71.8965 77.0319 72.6191 77.5137C76.8587 80.2598 78.9785 84.0176 78.9785 88.7871Z" fill="black"/>
</svg>
